<svg xmlns="http://www.w3.org/2000/svg" xmlns:xlink="http://www.w3.org/1999/xlink" viewBox="0 0 33.867 33.867" height="128" width="128"><defs><linearGradient gradientUnits="userSpaceOnUse" y2="193.43" x2="134.645" y1="147.033" x1="132.656" id="c" xlink:href="#a"/><linearGradient id="a"><stop offset="0" stop-color="#fff"/><stop offset="1" stop-color="#666"/></linearGradient><linearGradient y2="184.513" x2="133.661" y1="161.739" x1="132.561" gradientUnits="userSpaceOnUse" id="d" xlink:href="#a"/><radialGradient gradientUnits="userSpaceOnUse" gradientTransform="matrix(1 0 0 1.45512 0 -70.388)" r="3.041" fy="154.658" fx="132.936" cy="154.658" cx="132.936" id="e" xlink:href="#b"/><linearGradient id="b"><stop offset="0"/><stop offset="1" stop-color="#044" stop-opacity="0"/></linearGradient><linearGradient gradientUnits="userSpaceOnUse" y2="145.746" x2="132.384" y1="140.549" x1="132.927" id="f" xlink:href="#a"/><linearGradient gradientUnits="userSpaceOnUse" y2="140.095" x2="132.744" y1="132.346" x1="132.665" id="g" xlink:href="#a"/></defs><path d="M14.832 32.774C8.436 31.912 2.977 26.392 2.39 19.932c-.42-4.227 1.02-8.768 4.186-11.673 1.414-1.24 3.235-2.118 5.148-2.045.906-.822-.297-2.922 1.217-3.58 1.485-.116 2.53-1.284 3.965-1.506 1.464-.226 3.217.13 3.905 1.597.396 1.099.339 2.292.464 3.44 2.15-.066 4.374.511 5.946 2.05 3.153 2.8 4.641 7.175 4.274 11.33-.328 5.926-4.847 11.253-10.532 12.815-1.924.509-3.957.44-5.934.434l-.196-.02z" fill="#1a1a1a"/><path d="M142.707 184.188c6.605-1.812 12.138-6.197 15.75-12.481.392-.683 1.132-2.492 1.643-4.02 2.22-6.632 1.772-12.761-1.392-19.08-1.418-2.832-2.241-3.955-4.493-6.129-3.533-3.41-8.393-4.54-12.972-3.014-1.053.35-1.988.565-2.077.476-.314-.314.177-.69 1.458-1.116l1.295-.43.183-1.575c.216-1.864-.054-4.603-.548-5.57-.587-1.145-1.97-1.784-4.198-1.94-1.56-.109-4.262 1.017-3.54 1.475.19.12.62.221.954.224.334.002.887.284 1.23.626.566.567.617.826.573 2.938-.052 2.577-.327 3.03-1.866 3.08-.445.015-1.107.122-1.47.239-.522.167-.369.217.721.238 1.714.033 2.09.525 2.154 2.814.068 2.447-.18 2.65-3.163 2.578-2.21-.054-2.576.01-3.791.654-5.606 2.972-10.194 7.46-12.264 11.998-1.787 3.916-1.842 9.313-.137 13.442 3.542 8.578 13.789 13.682 23.477 11.694 5.704-1.17 10.926-4.663 13.582-9.085 3.552-5.913 3.446-12.91-.281-18.546-2.216-3.35-6.08-6.767-10.115-8.944-2.097-1.13-2.515-1.596-2.068-2.304.659-1.044 4.221-.93 7.337.237 6.094 2.28 9.887 9.656 9.79 19.036-.07 6.734-3.477 13.195-9.08 17.22-4.781 3.434-12.11 4.95-18.03 3.731-4.242-.873-8.247-2.868-11.148-5.551-2.432-2.25-5.014-6.354-5.888-9.358-.642-2.21-.68-2.478-.844-5.91-.319-6.667 1.963-13.14 5.944-16.865 2.256-2.11 4.868-3.147 8.115-3.222l1.852-.043v-2.623l-1.19-.18c-1.579-.236-3.458-.027-5.544.619-2.42.749-2.962 1.077-5.078 3.073-2.975 2.806-4.817 5.933-6.21 10.54-.628 2.075-.715 2.818-.737 6.32-.029 4.392.322 6.389 1.737 9.882 2.213 5.464 6.61 10.236 11.858 12.869 2.943 1.477 4.32 1.927 7.572 2.474 3.276.552 7.852.346 10.9-.49z" fill="url(#c)" transform="matrix(.541 0 0 .541 -56.605 -68.076)"/><path d="M13.502 29.132c-1.662-.43-2.948-1.18-4.265-2.49-1.832-1.823-2.499-3.44-2.5-6.069-.002-2.927 1.178-5.22 3.572-6.94.383-.275.902-.606 1.154-.737.523-.27 2.092-.79 2.386-.79.314 0 .227.351-.181.727-1.102 1.014-1.505 3.636-.776 5.054.382.744.805 1.104 1.6 1.362 1.196.387 2.383-.3 3.187-1.847.628-1.208.725-3.078.227-4.408-.16-.43-.256-.819-.211-.864.165-.164 1.691.265 2.656.748 1.742.871 2.55 1.611 4.075 3.737.896 1.248 1.313 4.102.872 5.976-.747 3.179-3.613 5.924-6.915 6.624-1.358.288-3.594.25-4.881-.083z"/><path d="M136.604 179.31c2.823-.508 5.743-1.285 7.98-3.175 3.42-2.547 5.977-6.415 6.315-10.732.384-4.29-1.294-8.719-4.451-11.657-2.059-2.173-4.719-3.808-7.642-4.485-.283 1.223.612 2.848.394 4.26-.049 3.13-1.246 6.543-4.094 8.173-3.041 1.834-7.459-.39-7.903-3.896-.549-2.734-.166-5.75 1.473-8.06.395-1.07-1.533.512-2.052.59-6.012 2.627-9.85 9.533-8.693 16.02.994 5.684 5.4 10.548 10.924 12.183 1.988.58 4.073 1.072 6.151.963a73.11 73.11 0 0 1 1.598-.184z" fill="url(#d)" transform="matrix(.541 0 0 .541 -56.605 -68.076)"/><path d="M14.167 27.367c-.873-.269-.908-.37-.545-1.575.305-1.011.308-1.044.093-1.28-.373-.411-.49-.74-.49-1.382 0-1.122.55-1.789 1.613-1.959.37-.059.6-.014 1.009.197.758.39.997.77.997 1.587 0 .567-.062.76-.39 1.225l-.388.552.58 1.117c.555 1.066.571 1.125.36 1.284-.274.206-1.249.424-1.845.412a4.412 4.412 0 0 1-.994-.178zM9.869 23.577c-.478-.406-.726-1.018-.793-1.95-.095-1.333.409-2.484 1.223-2.794.565-.215 1.29.225 1.673 1.016.314.647.313 2.293-.002 2.998-.415.93-1.446 1.288-2.101.73zM19.723 23.623c-.57-.347-.933-1.21-.935-2.221-.002-1.04.189-1.607.73-2.164.397-.408.455-.43 1.024-.375.491.047.665.129.937.441.453.518.638 1.11.638 2.038 0 .973-.206 1.58-.711 2.102-.468.48-1.081.546-1.683.179z" fill="#333" stroke="#000" stroke-width=".37870699999999996"/><path d="M14.832 18.441c-.47-.115-1.062-.602-1.318-1.086-.341-.645-.306-2.26.068-3.11.57-1.3 1.606-1.8 2.663-1.289.792.384 1.158 1.127 1.162 2.361.004 1.769-1.358 3.422-2.575 3.124z"/><path d="M134.164 158.33c1.333-1.417 1.786-2.416 1.812-3.99.072-4.443-3.731-5.659-5.52-1.765-.679 1.478-.744 3.067-.185 4.5.803 2.06 2.593 2.637 3.893 1.255z" fill="#fc8389" stroke="url(#e)" stroke-width=".5" transform="matrix(.541 0 0 .541 -56.605 -68.076)"/><path d="M7.532 13.407c.913-1.14 2.218-2.309 3.668-3.283.834-.56.86-.594.455-.594-.642 0-1.295.26-2.357.94-1.319.846-2.43 2.391-2.914 4.053-.185.634-.183.647.049.31.132-.194.627-.835 1.1-1.426zM27.082 13.471c-.998-2.06-2.414-3.303-4.355-3.823-.361-.096-.707-.121-.769-.056-.061.066-.036.147.057.18.274.099 2.367 1.688 3.132 2.38.39.35 1.094 1.161 1.566 1.8 1.036 1.404 1.186 1.208.369-.48z" fill="#fff"/><path d="M135.299 141.198c.105-1.791-.322-2.337-1.827-2.336-.639 0-1.608.086-2.154.189-.952.18-.993.231-1.023 1.3-.064 2.28-.003 2.328 2.81 2.238l2.116-.068z" fill="url(#f)" transform="matrix(.541 0 0 .541 -56.605 -68.076)"/><path d="M14.904 6.604c0-.151-.275-.215-.356-.083-.05.08.01.146.133.146.122 0 .223-.029.223-.063z" fill="#fff"/><path d="M135.547 136.517c.31-.258.37-.755.273-2.27-.068-1.067-.267-2.083-.441-2.257-.352-.352-4.44-.429-5.64-.107-.94.252-1.326 1.02-1.326 2.634 0 1.619.427 2.094 2.109 2.35 1.689.257 4.533.059 5.025-.35z" fill="url(#g)" transform="matrix(.541 0 0 .541 -56.605 -68.076)"/></svg>